<svg width="14" height="14" viewBox="0 0 14 14" fill="none" xmlns="http://www.w3.org/2000/svg">
<path d="M6.75169 9.15166L9.5995 6.56647L6.75169 3.98128" stroke="white" stroke-linecap="round" stroke-linejoin="round"/>
<path d="M9.60028 6.56628H1.05554" stroke="white" stroke-linecap="round" stroke-linejoin="round"/>
<path d="M2.00354 4.41238V2.25091C2.00354 1.30159 2.84909 0.530966 3.89484 0.5272L11.4449 0.500014C12.4935 0.496236 13.3471 1.2649 13.3512 2.21688M13.3512 2.21688C13.3512 2.21688 13.3512 2.21688 13.3512 2.21688ZM13.3512 2.21688L13.389 10.8606C13.3931 11.8126 12.5464 12.5874 11.4977 12.5912C11.4952 12.5912 11.4927 12.5912 11.4902 12.5912H3.90237C2.85368 12.5912 2.00354 11.8195 2.00354 10.8675V8.72169" stroke="white" stroke-linecap="round" stroke-linejoin="round"/>
</svg>
